<svg width="15" height="17" viewBox="0 0 15 17" fill="none" xmlns="http://www.w3.org/2000/svg">
<g clip-path="url(#clip0_664_610)">
<path d="M2.3026 7.35482C1.82714 7.57849 0.568704 8.58536 0.326327 8.88369C0.0746129 9.18201 5.98133e-05 8.7159 0.261064 7.94213C0.466097 7.31752 0.988197 6.46914 1.86444 5.74201C2.37711 5.32249 3.50511 4.71655 4.19489 4.36225C4.33476 4.28765 6.14321 3.52321 7.75591 3.141C7.89577 3.10369 7.58813 3.37405 7.5415 3.52321C7.29912 4.23172 2.461 7.27088 2.461 7.27088L2.3026 7.35482ZM9.11691 15.9036C9.2008 16.407 9.12624 16.4443 8.60423 16.5095C8.08218 16.5748 7.69999 16.379 7.56017 16.2485C7.42031 16.1179 7.39239 15.829 7.53221 15.568C7.61614 15.4002 7.70003 15.3442 7.74667 15.1391C7.79326 14.9434 7.83056 14.8967 7.86781 14.8222C7.90507 14.7569 7.91445 14.6916 7.92374 14.2348C7.93307 13.778 7.92374 12.9203 7.97037 12.5568C8.01701 12.1839 9.62972 12.7246 9.62972 12.7246C9.62972 12.7246 9.24748 13.6755 9.14496 13.9085C9.0424 14.1416 9.05174 14.5891 9.05174 14.6823C9.05174 14.7755 9.01448 14.962 8.98647 14.9713C8.95851 14.9806 9.0797 15.223 9.02373 15.3628C8.98643 15.4934 9.10762 15.829 9.11691 15.9036ZM9.73219 1.64938C9.67622 1.29513 9.73219 0.59587 9.80674 0.484056C10.0398 0.16706 11.2703 0.129804 11.5313 0.502684C11.6432 0.670474 11.6339 1.06203 11.6152 1.31376C11.5966 1.56544 11.5313 2.10616 11.522 2.28333C11.5127 2.41386 10.161 2.61891 9.86271 2.26466C9.77878 2.17147 9.73219 1.64938 9.73219 1.64938ZM12.4728 14.9993C13.0415 15.4095 13.4796 15.484 13.7686 15.6332C14.0575 15.7824 13.983 16.0714 13.4982 16.1553C13.1067 16.2299 12.4915 16.0807 12.0813 16.0807C11.6712 16.0807 10.7576 16.1273 10.5152 15.9595C10.2356 15.7638 10.3567 15.4002 10.3567 15.4002C10.4313 15.1951 10.6177 14.7382 10.5618 14.3654C10.5059 13.9925 10.4313 13.7874 10.2914 13.4424C10.1516 13.0975 10.0491 12.2492 10.1796 12.2025C10.3102 12.1559 10.2728 12.2025 10.4406 12.2398C10.6084 12.2771 10.7949 12.333 11.1584 12.333C11.522 12.333 11.9228 12.2771 12.0627 12.2491C12.2025 12.2212 12.3144 12.1932 12.2677 12.4822C12.2211 12.7712 12.0813 13.3119 12.072 13.7314C12.0627 14.1509 12.0627 14.6357 12.0907 14.7196C12.1186 14.8035 12.3237 14.8967 12.4728 14.9993Z" fill="#010101"/>
<path d="M10.4779 2.5816C9.4525 3.46728 7.46689 3.70963 4.5212 4.84699C3.76611 5.13597 1.75258 6.00298 1.26782 6.90728C2.89916 5.96572 3.5051 7.26154 3.63558 8.59465C3.75672 9.84387 4.38134 10.4965 5.98471 10.4591C7.63472 10.4219 8.1381 11.3821 8.59485 12.5101C9.48042 8.19376 10.8974 7.35477 11.8109 6.6183C13.7499 5.04274 11.3635 2.2646 10.4779 2.5816Z" fill="#8AC640"/>
<path d="M10.4778 2.58154C8.01681 3.43921 5.58374 3.65364 2.72194 5.41561C2.04144 5.83513 0.605849 6.78598 0.326172 8.60393C1.37019 7.44789 3.78458 5.99363 6.73966 5.07069C8.23118 4.60454 9.32188 4.29692 10.6456 3.78417C10.5524 3.18748 10.5524 2.95442 10.4778 2.58154Z" fill="#8AC640"/>
<path d="M13.6194 7.6903C13.6194 7.6903 13.4423 8.29629 13.0881 8.49209C13.0881 8.49209 12.8271 8.58532 12.3051 8.29633C12.1559 8.21244 12.0441 7.92345 12.0534 7.83017C12.0627 7.60641 12.2025 7.50389 12.2025 7.50389C12.2025 7.50389 12.3517 7.25216 12.5288 7.26149C12.7059 7.27078 13.0043 7.29875 13.0975 7.21485C13.1813 7.12162 13.6381 7.38264 13.6194 7.6903ZM9.81609 1.82642C9.81609 1.82642 9.77884 2.30191 9.71357 2.60019C9.70424 2.65616 9.42461 2.68408 9.21948 2.76802C9.61101 3.88671 11.9695 3.87737 12.2771 3.32737C12.128 3.22484 11.8297 3.06635 11.6898 3.01042C11.55 2.95444 11.5593 2.96378 11.55 2.70276C11.5407 2.44169 11.522 1.95695 11.5034 1.82642C11.4847 1.69588 10.0398 1.69588 9.81609 1.82642Z" fill="#010101"/>
<path d="M9.90916 1.82659C9.90916 1.82659 9.90916 2.09695 9.8812 2.35797C9.87191 2.47917 9.86257 2.55373 9.84395 2.64696C9.83461 2.70293 10.1609 2.92661 10.2541 3.42073C10.7016 4.41822 11.7363 3.92414 12.1651 3.44869C12.016 3.34613 11.7736 3.2063 11.494 3.09444C11.3541 3.03847 11.4194 2.91732 11.4101 2.65629C11.4007 2.39527 11.3634 2.01301 11.3448 1.87319C11.3261 1.73336 10.1329 1.69606 9.90916 1.82659Z" fill="#F0EFEF"/>
<path d="M9.81606 1.82642C9.81606 1.82642 9.80673 1.99425 9.77881 2.19001C9.89995 2.31116 10.0584 2.47899 10.1797 2.58156C10.2636 2.65616 10.4686 2.64683 10.6551 2.64683C10.8229 2.64683 10.972 2.66545 11.0373 2.6282C11.1865 2.55359 11.4009 2.36718 11.522 2.22731C11.5128 2.05952 11.5034 1.90102 11.4941 1.82642C11.4847 1.69588 10.0398 1.69588 9.81606 1.82642Z" fill="#010101"/>
<path d="M10.6644 2.53493C10.5525 2.53493 10.422 2.52564 10.3195 2.50696C10.2728 2.49767 10.2262 2.46971 10.1889 2.45103C10.1237 2.40439 10.0584 2.34851 9.98389 2.29253C9.8347 2.18067 9.82541 2.11541 9.82541 2.08749C9.89067 1.50013 9.80673 1.00606 9.80673 1.00606C9.80673 1.00606 9.74147 0.754326 10.0957 0.68906C10.4499 0.623793 10.6643 0.614502 10.6643 0.614502C10.6643 0.614502 10.8881 0.614502 11.233 0.68906C11.5872 0.754326 11.522 1.00606 11.522 1.00606C11.522 1.00606 11.4381 1.50013 11.5033 2.08749C11.5033 2.11541 11.494 2.18067 11.3448 2.29253C11.2143 2.38577 11.1118 2.48829 11.0093 2.50696C10.9067 2.52564 10.7762 2.53493 10.6644 2.53493Z" fill="#010101"/>
<path d="M10.6644 0.37207C10.0492 0.37207 9.92793 0.53986 9.75082 0.726323C9.71356 0.772916 9.74148 1.05261 9.80679 1.64926H9.89068C9.89068 1.64926 9.83471 1.48142 9.84404 1.28567C9.85338 1.08991 9.89068 1.09925 9.86267 1.05261C9.82542 0.996635 9.75082 0.903403 9.91864 0.810218C10.0864 0.716986 10.3474 0.884775 10.6644 0.894112C10.9813 0.884775 11.2517 0.716986 11.4195 0.810218C11.5872 0.903403 11.5127 0.996635 11.4754 1.05261C11.4381 1.10854 11.4847 1.08987 11.4941 1.28567C11.5033 1.48142 11.4474 1.64926 11.4474 1.64926H11.5313C11.5872 1.05261 11.6245 0.79159 11.5966 0.744951C11.4381 0.53986 11.2796 0.381361 10.6644 0.37207ZM13.6194 7.71824C13.6194 7.71824 13.4423 8.28692 13.0974 8.48267C13.0228 8.44541 13.0322 8.38948 12.9669 8.30554C12.9482 8.27763 12.883 8.25891 12.855 8.23099C12.8271 8.20302 12.8364 8.15638 12.7898 8.11913C12.7525 8.08183 12.7245 8.10979 12.6872 8.08183C12.65 8.04457 12.6406 7.99793 12.6127 7.97001C12.594 7.95134 12.5194 7.94205 12.5008 7.92337C12.4542 7.87673 12.0441 7.79284 12.0627 7.69961C12.1 7.55974 12.1745 7.45721 12.1745 7.45721C12.1745 7.45721 12.3517 7.19619 12.5287 7.20548C12.7058 7.21482 12.8737 7.25212 12.9669 7.16823C13.0695 7.07495 13.6474 7.41991 13.6194 7.71824Z" fill="#010101"/>
<path d="M12.4077 3.59773C12.4077 3.59773 12.9949 3.45786 13.3958 3.84012C13.7967 4.23168 13.7686 4.71642 13.6475 5.01474C13.75 5.13594 13.9365 5.47152 13.7967 5.87241C14.4119 6.39445 14.1415 7.19623 13.5916 7.72761C13.5916 7.72761 13.4611 7.24282 12.939 7.21486C12.9577 7.02844 12.4543 6.87924 12.6873 6.39445C12.3331 6.31055 12.3424 6.06816 12.2865 5.76988C12.2399 5.47152 12.4077 3.59773 12.4077 3.59773Z" fill="#010101"/>
<path d="M12.1931 3.85886C12.1931 3.85886 12.8736 3.51395 13.2744 3.9055C13.6752 4.29706 13.5633 4.72587 13.4422 5.02419C13.5447 5.14534 13.7871 5.49035 13.6379 5.90049C13.61 5.99372 13.4049 5.99372 13.2557 6.23611C13.6286 6.02164 13.8616 6.07761 13.9455 6.34792C14.0761 6.76744 13.7871 7.27086 13.5354 7.55055C13.5354 7.54121 13.526 7.53188 13.526 7.52259C13.4888 7.66246 13.4422 7.93277 13.1625 8.23109C13.0227 8.38025 12.9108 8.36163 12.7523 8.32432C12.5659 8.27769 12.5007 8.19374 12.2397 8.05397C12.0905 7.97007 12.1744 7.8675 12.1744 7.78361C12.1744 7.76498 12.193 7.73697 12.221 7.69971C12.2397 7.65307 12.2956 7.57856 12.3795 7.49462C12.3795 7.49462 12.5007 7.32683 12.6778 7.33612C12.8549 7.34546 13.0413 7.3082 13.088 7.26157C13.088 6.93528 12.7151 6.92594 12.8456 6.3666C12.8549 6.33863 12.9016 6.29199 13.0507 6.27337C12.8269 6.22673 12.7244 6.21739 12.5659 6.06827C12.4541 5.96575 12.3702 5.83522 12.3422 5.66743C12.2863 5.37844 12.1931 3.85886 12.1931 3.85886Z" fill="#F0EFEF"/>
<path d="M10.2262 3.27145C10.1702 3.19685 9.88127 2.82397 9.33125 2.67481C9.17276 2.62817 9.07024 2.7587 8.9118 2.85193C8.86517 2.82397 8.66009 2.73074 8.54823 2.79596C8.43638 2.86118 8.36183 2.92649 8.24993 2.97308C8.19396 2.94512 8.04485 2.94512 7.92366 2.99171C7.80247 3.02901 7.61602 3.11291 7.43891 3.3553C7.32706 3.75619 9.41514 3.45782 9.41514 3.45782L10.2262 3.27145Z" fill="#010101"/>
<path d="M10.2449 3.27159C9.9465 3.16902 9.99314 2.8241 9.33127 2.76817C9.20074 2.75884 9.11685 2.86136 9.02363 2.92663C9.07026 2.97327 9.11685 3.04782 9.14482 3.12238C9.06093 3.02919 8.91177 2.90795 8.76258 2.87999C8.62276 2.85207 8.52954 2.95459 8.38038 3.02919C8.4083 3.05711 8.43631 3.10375 8.47356 3.15973C8.34304 3.07583 8.24986 3.04787 8.07274 3.11309C7.95156 3.15035 7.71851 3.25291 7.5414 3.50464C7.42955 3.90554 9.42445 3.45801 9.42445 3.45801L10.2449 3.27159Z" fill="#8AC640"/>
<path d="M11.9973 3.42074C11.9973 3.42074 11.9973 3.31817 11.988 3.22498C11.988 3.20635 11.9134 3.15972 11.9134 3.14109L11.8948 3.12241C11.8948 3.12241 12.0439 3.03852 12.1558 3.08516C12.2769 3.12241 12.3422 3.28091 12.3422 3.28091C12.5566 3.20635 12.5752 3.29025 12.6778 3.40211C12.9015 3.35547 12.9295 3.43936 13.0693 3.6445C13.0693 3.6445 12.9015 3.61654 12.5753 3.67242C12.2583 3.71901 11.9973 3.4114 11.9973 3.42074Z" fill="#010101"/>
<path d="M11.9602 3.37396C11.9602 3.37396 12.0161 3.32732 11.9974 3.31799C12.0999 3.26206 12.2398 3.19684 12.3051 3.37396C12.5195 3.29936 12.5474 3.40193 12.65 3.51383C12.911 3.39264 12.9296 3.54175 12.9483 3.60702C12.8644 3.60702 12.7432 3.61636 12.5754 3.63498C12.2585 3.68162 11.9508 3.36463 11.9602 3.37396Z" fill="#8AC640"/>
<path d="M8.79062 3.14087C8.79062 3.14087 9.32196 3.32729 9.76942 3.29932C10.2169 3.26207 10.9813 3.22476 11.3914 3.46716C11.3914 3.46716 11.8109 3.31795 12.2024 3.42052C12.594 3.52304 13.3118 4.19429 13.0974 4.9028C13.0787 4.94943 12.9575 5.02399 12.8177 5.07063C12.8177 5.07063 12.8923 5.38758 12.7618 5.6486C12.6313 5.90033 12.3423 6.38512 12.333 7.05632C12.3237 7.16818 12.305 7.40124 12.2864 7.5131C11.5592 7.48518 10.4406 7.21478 9.34063 7.23345C9.34992 7.1123 9.35926 7.03769 9.3686 6.9165H9.39651C9.34059 6.60884 9.32196 6.45034 9.26599 6.21728C8.91176 5.99356 8.53886 5.73254 8.22197 5.23842C7.91433 4.7443 8.79062 3.14087 8.79062 3.14087ZM12.3889 8.17506C12.3889 8.17506 12.9669 10.2447 12.2864 11.1117C12.2864 11.1117 12.3889 11.5125 12.1558 11.9414C12.1185 12.1278 12.0719 12.2956 12.044 12.4821C11.9228 13.2558 11.7177 13.5821 11.6618 14.822L11.1024 14.8127C11.1024 14.8127 11.0371 13.9177 10.8414 13.4423C10.7296 13.172 10.2914 12.8084 10.3101 12.4448C10.3287 12.1651 10.3847 11.9321 10.8601 11.5591C10.8974 11.0185 10.3567 10.5057 10.4406 8.49201L12.3889 8.17506Z" fill="#010101"/>
<path d="M12.2211 8.09112C12.3702 9.04201 12.7151 10.4497 12.0905 11.1396C12.1274 11.3145 12.1306 11.4948 12.0998 11.6709C12.0812 11.7828 12.0439 11.904 11.9973 12.0345C11.9041 12.2583 11.8668 12.5845 11.8388 12.7803C11.7176 13.5541 11.7176 13.5914 11.6617 14.8313L11.1024 14.822C11.1024 14.822 11.0371 13.927 10.8414 13.4516C10.7296 13.1812 10.4965 12.9482 10.4778 12.5846C10.4592 12.3049 10.655 11.7456 11.1211 11.7642C11.0931 10.6362 10.5711 10.8599 10.4312 8.51063L12.2211 8.09112ZM8.79058 3.14087C8.79058 3.14087 8.99566 3.20614 9.21936 3.22476C9.44311 3.24339 9.68549 3.22476 9.89986 3.21543C10.3473 3.17817 10.9812 3.13153 11.4007 3.37393C11.4007 3.37393 11.6338 3.29932 11.8855 3.31795C11.9973 3.32729 12.1092 3.42052 12.2397 3.45782C12.6499 3.56034 13.0414 4.24088 12.8642 4.8562C12.8456 4.90284 12.7151 4.8562 12.5659 4.90284C12.5938 5.03337 12.6126 5.3317 12.4634 5.64865C12.3049 5.96565 12.0998 6.37583 12.1371 7.15894C11.1583 7.1123 10.7202 7.04708 9.75066 7.00044C9.66677 6.65548 9.6108 6.31056 9.60151 6.13343C9.73203 6.06817 9.80654 6.01228 9.90915 5.90038C9.62952 5.94702 9.51762 5.92834 9.3498 5.83511C9.18202 5.74188 8.88371 5.44356 8.73456 5.2478C8.71593 5.22913 8.61342 5.53674 8.38038 5.54613C8.29644 5.42493 8.65067 5.07997 8.58541 4.94948C8.35241 4.47398 8.79058 3.14087 8.79058 3.14087Z" fill="#F0EFEF"/>
<path d="M12.2957 7.31748C12.2957 7.31748 12.3143 7.6531 12.3143 7.737C12.3143 7.83023 12.3889 8.10988 12.3982 8.24041C12.2957 8.41754 11.8482 8.81843 11.0372 8.96759C10.2355 9.13538 9.17285 7.87687 9.17285 7.87687C9.20081 7.75567 9.29404 7.40137 9.3593 7.21496C9.36864 7.19633 9.38727 7.14969 9.38727 7.13106C9.4712 7.00986 12.2957 7.31748 12.2957 7.31748Z" fill="#010101"/>
<path d="M12.0906 7.34556C12.0906 7.57861 12.1279 7.74645 12.1559 7.89561C12.2025 8.16597 12.277 8.3431 12.277 8.52022C12.277 9.06089 11.5686 8.96766 10.9719 8.98633C10.1702 9.15417 9.48975 7.89561 9.48975 7.89561C9.54567 7.68118 9.58297 7.43884 9.66686 7.2337C9.67615 7.12184 9.69482 6.98201 9.70411 6.91675C10.8414 6.91675 11.6431 6.98202 12.1092 7.02856C12.1279 7.13113 12.1093 7.30826 12.0906 7.34556Z" fill="#F0EFEF"/>
<path d="M11.1956 8.5481C11.1956 8.5481 10.7015 7.44804 9.21928 7.77437C8.8651 8.77186 8.38963 9.91856 8.69727 11.1584C8.38963 11.578 8.0354 11.8111 8.0354 12.5848C8.0354 13.3586 8.0727 13.4891 8.0727 13.4891L9.16335 13.5451C9.16335 13.5451 9.51758 13.0883 9.6574 12.5942C9.6947 12.4543 9.732 12.2026 9.70403 11.9136C9.74129 11.8577 9.89978 11.7272 9.91845 11.4755C9.91845 11.4755 10.4498 11.1958 10.7574 10.5153C11.0464 9.89989 10.9718 9.36851 11.1956 8.5481Z" fill="#010101"/>
<path d="M11.1957 8.54798C11.1678 8.44546 10.7949 7.43863 9.41525 7.73691C8.60428 9.89977 8.90258 10.7947 9.02372 11.1862C8.4737 11.8854 8.22204 12.0346 8.33393 13.4516H9.06107C9.39662 12.9203 9.47122 12.7245 9.48985 12.0253C9.48985 11.9973 9.38733 12.0812 9.31274 12.1744C9.36871 11.8855 9.52715 11.8295 9.64834 11.6524C9.70426 11.5778 9.75085 11.4659 9.75085 11.3168C10.4034 10.8786 10.6458 10.3286 10.7856 9.7599C10.8975 9.36839 11.028 8.72511 11.1957 8.54798Z" fill="#F0EFEF"/>
<path d="M8.89307 7.04712C8.89307 7.04712 9.14479 7.05641 9.36854 7.13101C9.58295 7.20557 9.58295 7.25216 9.66684 7.34544C9.75073 7.43872 9.95581 7.5785 9.91856 7.71832C9.89988 7.79293 9.85329 7.81155 9.78803 7.87682C9.76007 7.90479 9.55494 8.12851 9.50836 8.15647C9.48039 8.1751 9.44309 8.20311 9.41513 8.22174L9.27531 8.31497C9.18209 8.36161 9.11683 8.38957 9.01431 8.38024C9.01431 8.38024 8.78127 8.3709 8.63207 8.21245C8.63207 8.21245 8.61344 8.13784 8.65074 8.10059C8.65074 8.10059 8.45496 7.93275 8.39903 7.82089C8.34306 7.70908 8.34306 7.55058 8.3804 7.46668C8.39903 7.3827 8.76255 7.14964 8.89307 7.04712ZM9.12616 16.118L9.0982 16.3511C9.0982 16.3511 9.01431 16.4536 8.38974 16.4443C7.75583 16.435 7.58805 16.2392 7.53213 16.1366L7.49487 15.8942C7.49487 15.8942 7.61606 15.7171 7.64402 15.7171C7.8491 15.7357 8.54827 16.0154 9.03303 16.09C9.07953 16.09 9.08882 16.1086 9.12616 16.118ZM10.4778 15.6425C10.4778 15.745 10.4685 15.745 10.4685 15.8476C10.5803 15.9315 10.8601 15.9781 11.3914 15.9687C12.1651 15.9501 12.8829 16.2018 13.7591 16.0526L13.7685 15.8849L13.6846 15.8756L10.5803 15.6238L10.4778 15.6425Z" fill="#010101"/>
<path d="M11.1584 15.9689H11.3915C11.8949 15.9503 12.3703 16.0621 12.883 16.0901C13.1533 16.0807 13.4889 16.0155 13.461 15.8197L10.8135 15.596C10.655 15.7731 10.7762 15.9222 11.1584 15.9689ZM8.11945 12.0441C8.20334 12.1 8.77198 12.4356 9.69486 12.389C9.67618 12.5661 9.68552 12.9111 9.27536 13.517C9.07028 13.8154 8.89312 14.3374 8.85587 14.9994C8.86521 15.1485 8.9491 15.279 8.83724 15.4748C8.8745 15.596 9.02365 15.8384 9.09825 15.9875C9.1728 16.1367 9.2101 16.3045 8.71601 16.3138C8.21263 16.3231 7.4016 16.2672 7.5135 15.8757C7.56947 15.6706 7.72792 15.4562 7.74659 15.3722C7.76522 15.2883 7.76522 15.0367 7.92366 14.8688C8.06352 14.4027 8.01688 13.9552 7.98897 13.5357C7.94233 13.0975 7.933 12.3983 8.11945 12.0441ZM8.9864 4.4462C9.64827 3.56052 9.08891 2.85206 8.02627 3.06644C7.59744 3.15034 7.16865 3.44871 7.14065 3.98938C7.00083 4.008 6.6839 4.02663 6.52541 4.60465C6.40427 5.05213 6.33901 5.13603 6.12455 5.35975C5.98473 5.51825 6.13388 5.84454 6.2364 6.07764C6.58134 6.87937 7.64403 6.95393 8.36182 7.55991C8.6042 7.49465 8.85587 7.22434 8.93047 7.04721C8.32453 6.32932 8.455 6.04967 8.21263 5.67679C8.47368 5.58351 9.07028 5.21997 8.9864 4.4462Z" fill="#010101"/>
<path d="M8.85585 4.39006C8.8931 4.33408 8.95836 4.21293 8.98637 4.16629C8.99571 4.15696 9.09822 4.33408 9.10756 4.32479C9.35923 3.91456 9.42449 3.31792 9.13548 3.26199C9.07021 3.25265 8.94907 3.22473 8.84651 3.18739C8.6601 3.12212 8.49232 3.12212 8.19397 3.17809C7.78382 3.25265 7.37366 3.55097 7.37366 3.97983C7.37366 4.0078 7.66258 4.09169 7.74652 4.43665C7.60666 4.24085 7.36428 4.02642 7.07531 4.21289C6.76767 4.40864 6.92616 4.85613 6.516 5.32224C6.37614 5.48074 6.39482 5.6672 6.54392 6.04008C6.7863 6.62743 7.93293 6.94439 8.5575 7.50373C8.70665 7.43846 8.80916 7.2893 8.88376 7.17744C8.46427 6.73929 8.29645 6.32907 8.1753 6.03074C8.02615 5.68583 7.85833 5.49007 7.53206 5.22896C7.69988 5.29423 7.83041 5.35949 7.90492 5.41542C7.98881 5.47135 8.10999 5.48069 8.22189 5.44339C8.6228 5.30366 8.83722 4.74427 8.85585 4.39006Z" fill="#F0EFEF"/>
<path d="M12.911 4.53943C12.8831 4.89368 12.6221 4.71656 12.4822 4.65129C12.2026 4.53009 11.9229 4.4462 11.5966 4.4462C11.2704 4.4462 10.8509 4.47416 10.4873 4.5674C9.98396 4.70722 9.83476 4.69793 9.61105 4.58602C9.38735 4.46483 8.99587 4.1665 8.99587 4.1665C8.99587 4.1665 8.98653 4.25974 9.07975 4.38093C9.2009 4.53009 9.47128 4.71656 9.8348 4.83771C10.0119 4.89368 10.1518 4.85634 10.3103 4.81908C11.1399 4.61399 12.0162 4.57669 12.7526 5.02417C12.7899 5.0428 12.9204 4.98687 12.9763 4.90297C13.0508 4.78182 12.911 4.53943 12.911 4.53943Z" fill="#010101"/>
<path d="M8.66943 8.09131C8.74399 8.13795 8.83721 8.16591 8.93973 8.24981C8.93973 8.24981 8.85584 8.24981 8.81859 8.21255C8.77195 8.18459 8.67872 8.10069 8.66943 8.09131Z" fill="#0A1825"/>
<path d="M11.3635 0.698434C11.3355 0.614539 11.1304 0.465332 10.6551 0.465332C10.1423 0.465332 9.99318 0.62383 9.98389 0.707725C9.98389 0.73569 9.94659 1.03406 9.93726 1.15521C9.93726 1.15521 9.93726 1.30437 9.94655 1.52809C9.95588 1.67725 9.99318 1.76115 10.0118 1.95695C10.0304 2.16199 10.0864 2.29253 10.1889 2.46036C10.2356 2.48828 10.2728 2.51629 10.3194 2.52563C10.5059 2.56288 10.8322 2.57222 11.0093 2.52563C11.1118 2.49766 11.2423 2.32054 11.2703 2.16204C11.3075 1.96628 11.3448 1.82641 11.3542 1.70526C11.3728 1.58411 11.3821 1.31371 11.3914 1.2391C11.4194 1.03406 11.3728 0.717062 11.3635 0.698434Z" fill="#F0EFEF"/>
<path d="M10.3846 12.2212C10.3846 12.2212 10.8787 12.4356 12.0998 12.2492C12.0998 12.2492 11.7549 13.9832 11.9134 14.8501C11.9134 14.8501 12.0719 15.0739 13.2465 15.5027C13.2465 15.5027 13.7685 15.6332 13.7498 15.8943C13.7498 15.8943 13.7685 15.9502 13.1346 15.9316C12.5007 15.9129 11.9041 15.801 11.4846 15.801C11.0651 15.801 10.6177 15.8196 10.5431 15.6985C10.4592 15.5866 10.5617 15.2976 10.6829 15.1298C10.8135 14.9527 10.7761 14.8221 10.7668 14.5052C10.7388 13.6755 10.1049 12.8178 10.3846 12.2212Z" fill="#010101"/>
<path d="M10.282 12.3796C10.2167 12.4728 10.2913 12.827 10.3845 13.172C10.4777 13.5169 10.6829 13.722 10.7295 14.2906C10.7761 14.85 10.7854 14.9246 10.6269 15.2508C10.4684 15.5771 10.4218 15.8754 10.9718 15.8848C11.5218 15.8941 11.8201 15.8754 12.3794 15.9594C12.9388 16.0433 13.1345 16.0712 13.4422 16.0246C13.7498 15.9781 13.815 15.8754 13.6845 15.7823C13.554 15.689 13.0133 15.5865 12.7803 15.4C12.5565 15.2322 11.9227 14.9525 11.9134 14.8779C11.8854 14.6262 11.8761 13.7126 11.9227 13.4143C11.9693 13.1159 12.0345 12.6871 12.0532 12.5753C12.0719 12.4634 12.1651 12.3515 12.0066 12.3888C11.8481 12.4261 11.2515 12.51 10.8041 12.482C10.3566 12.4541 10.31 12.3515 10.282 12.3796Z" fill="#8AC640"/>
<path opacity="0.3" d="M10.5992 15.2603C10.7576 15.3349 10.9907 15.3909 11.1678 15.3909C11.1678 15.3909 11.1025 15.6985 11.2051 15.8849C11.3076 16.0714 10.4593 15.9595 10.4593 15.9595L10.422 15.2976L10.5992 15.2603ZM13.0695 16.0621C13.2186 16.0154 13.3212 15.8476 13.2 15.6892C13.0695 15.5307 12.9576 15.5027 13.1254 15.4934C13.2932 15.4841 13.9085 15.857 13.9085 15.857L13.5915 16.146L13.0695 16.0621ZM10.2542 12.7432C10.4686 12.8178 10.7949 12.8364 11.0746 12.8271C11.3542 12.8178 11.7737 12.7805 12.0441 12.6873C12.3144 12.5941 12.2025 12.7898 12.2025 12.7898L12.0534 12.9297C12.0534 12.9297 11.6992 13.0695 11.1212 13.0602C10.4407 13.0509 10.2356 12.9763 10.2356 12.9763L10.2542 12.7432ZM10.2728 13.2094C10.4873 13.284 10.8135 13.3026 11.0932 13.2933C11.3728 13.284 11.7457 13.284 12.0161 13.1814C12.1279 13.1441 12.0627 13.3026 12.0627 13.3026L12.0161 13.3865C12.0161 13.3865 11.6525 13.517 11.0839 13.5076C10.4034 13.4984 10.2822 13.4424 10.2822 13.4424L10.2728 13.2094Z" fill="#010101"/>
<path d="M9.65747 6.67432C9.65747 6.73958 10.3846 7.10313 10.7854 7.17773C11.1863 7.25229 12.0253 7.17773 12.1558 7.14977L12.1371 7.2803C12.1371 7.2803 11.1397 7.42946 10.3753 7.22437C9.61084 7.01928 9.69477 6.97264 9.69477 6.97264L9.65747 6.67432Z" fill="#010101"/>
<path d="M8.10085 14.6263C8.21271 14.6823 8.61357 14.7848 8.87458 14.7289C8.91183 14.7195 8.87458 14.0856 8.97714 13.7966C9.12629 13.3957 9.36867 13.0694 9.48047 12.361C9.08894 12.3237 8.64153 12.2211 8.40845 12.1465C8.11019 13.0601 8.21275 13.8432 8.10085 14.6263ZM8.72547 15.2137C8.79073 15.2323 8.83732 15.3068 8.85599 15.2603C8.89325 15.1764 8.79073 15.0179 8.7814 14.906V14.8967C8.69751 14.8221 8.12886 14.8128 8.16616 14.8501C8.1009 14.9713 7.99838 14.9526 7.96113 15.195C7.9425 15.3162 8.09165 15.2137 8.23142 15.2043C7.97976 15.3721 7.69079 15.5866 7.64415 15.773C7.58823 16.034 7.68145 16.1086 7.96113 16.2485C8.20351 16.3044 8.49247 16.3138 8.71618 16.3044C8.96789 16.2578 9.01453 16.1366 8.93993 15.9688C8.82799 15.7171 8.75343 15.3908 8.72547 15.2137Z" fill="#F0EFEF"/>
<path d="M8.82786 3.10376C9.1355 3.28089 9.56433 3.23429 9.72277 3.22496C9.76007 3.22496 10.133 3.15969 10.1516 3.16898C10.1889 3.17832 10.1889 3.20628 10.1889 3.20628C10.1889 3.20628 10.049 3.28084 9.7321 3.29947C9.4338 3.3181 9.07957 3.29947 8.88383 3.20628C8.65074 3.10376 8.82786 3.10376 8.82786 3.10376ZM11.9973 3.28089C12.0533 3.31814 12.4168 3.45801 12.5753 3.6258C12.7151 3.77501 12.6406 3.76567 12.6126 3.72837C12.5753 3.68173 12.2863 3.48598 12.1745 3.43938C12.0626 3.39279 11.9227 3.30885 11.9227 3.29022C11.9227 3.2716 11.9973 3.28089 11.9973 3.28089Z" fill="#010101"/>
<path d="M8.78131 7.14954C9.05165 7.13091 9.33133 7.19618 9.50844 7.38259C9.60167 7.47582 9.75082 7.57835 9.7322 7.67158C9.7322 7.69954 9.67622 7.77415 9.62968 7.83008C9.60172 7.86733 9.51783 7.95123 9.48982 7.97924C9.45256 8.0072 9.32204 8.10977 9.29408 8.1284C9.26611 8.14707 9.22881 8.19371 9.20085 8.203C9.10767 8.24964 9.00511 8.21234 8.91188 8.16575C8.8187 8.11911 8.93056 8.10977 8.82799 8.03521C8.57633 7.85809 8.43646 7.73685 8.53903 7.39193C8.54832 7.32666 8.65083 7.25206 8.78131 7.14954Z" fill="#F0EFEF"/>
<path opacity="0.4" d="M6.40411 5.01481C5.56512 5.35044 3.43036 6.41324 2.82446 6.73953C3.32784 7.05648 3.56089 7.82092 3.63549 8.59469C3.64478 8.66929 3.65411 8.73456 3.66345 8.80912C3.67274 8.87438 3.68208 8.92097 3.69137 8.94899C3.69137 8.95832 3.69137 8.97695 3.7007 8.98624C4.25072 7.48534 6.21761 5.90049 6.29221 5.77929C6.32946 5.72336 6.24557 5.48097 6.3761 5.24796C6.54392 4.94955 6.87024 4.81901 6.40411 5.01481ZM8.39901 12.0534C8.82779 11.1957 8.83713 10.3753 8.82779 9.41505C8.82779 9.01416 9.11676 8.44548 8.96766 8.60398C8.4083 9.22854 7.00072 10.4033 5.98462 10.4685C7.41087 10.4219 7.97018 11.1397 8.39901 12.0534Z" fill="#010101"/>
<path d="M2.00415 7.53176C2.5355 7.14955 5.28549 5.68594 5.94736 5.48081C6.60919 5.26638 6.40411 5.01465 6.40411 5.01465C6.40411 5.01465 3.71937 6.17064 2.116 7.16817" fill="#010101"/>
<path opacity="0.4" d="M9.83463 4.83772C9.62021 4.75382 9.45243 5.00555 9.50836 5.24794C9.56433 5.49034 10.0677 5.76065 10.0397 6.64633C10.0211 7.37351 9.86259 7.67178 9.86259 7.67178L9.50836 7.22434C9.50836 7.22434 9.45243 6.21747 9.33125 6.06831C9.2101 5.91915 8.82786 5.64879 8.67871 5.50897C8.52956 5.36909 8.84649 5.18268 8.82786 4.92161C8.80924 4.66993 8.98635 4.16651 8.98635 4.16651L9.83463 4.83772ZM11.1304 8.8091C11.1118 9.50827 11.2703 10.5431 11.3355 11.0372C11.4007 11.5313 11.4846 11.5686 11.3355 11.7924C11.1863 12.0068 10.9906 12.3611 10.9906 12.3611L10.3473 12.3051C10.3473 12.3051 10.8601 11.6525 10.888 11.5313C10.9159 11.4102 10.627 10.4872 10.627 10.4872L11.1304 8.8091ZM9.8906 2.28334C10.0211 2.57228 10.1796 2.70282 10.4312 2.78676C10.5804 2.84269 11.1677 2.91729 11.4007 2.65622C11.5033 2.53503 11.438 2.20874 11.438 2.20874L10.9067 2.63755L10.1889 2.50706L10.105 2.29263L9.8906 2.28334Z" fill="#010101"/>
<path d="M9.94638 2.92651C10.1888 3.08501 10.7947 3.23417 10.9625 3.26214C11.1303 3.29939 11.4006 3.08501 11.5311 3.02908C11.671 2.96382 11.9134 2.92651 12.193 3.17824C12.221 3.20621 12.1277 3.3274 12.1277 3.3274C12.1184 3.31807 12.0625 3.31807 11.9879 3.28077C11.9133 3.24351 11.8481 3.2155 11.7362 3.22484C11.2701 3.28077 11.1955 3.43926 10.7854 3.34599C10.3752 3.25271 10.2726 3.1782 9.87183 3.19683" fill="#8AC640"/>
<path d="M9.86253 2.95459C10.1702 3.08512 10.7668 3.22495 10.9346 3.26225C11.1023 3.29955 11.3727 3.13172 11.5032 3.04782C11.7363 2.89866 12.0345 3.01986 12.1744 3.17836C12.2676 3.28088 12.3049 3.34614 12.3049 3.37411C12.3049 3.41137 12.1931 3.37411 12.1931 3.37411C12.1278 3.34614 12.0532 3.33685 11.9973 3.29951C11.9227 3.26225 11.8481 3.20632 11.7363 3.21561C11.2702 3.27159 11.177 3.43004 10.7762 3.33681C10.3753 3.24358 10.2728 3.15968 9.84399 3.1876" fill="#8AC640"/>
<path d="M8.41769 11.6618C8.39906 11.6432 8.43632 11.6245 8.41769 11.6245C8.29655 11.6245 8.12872 11.5313 8.03545 11.4008C7.63463 10.8228 7.04731 10.4406 5.98462 10.4685C4.39054 10.5058 3.75663 9.85327 3.63549 8.60405C3.57023 7.92351 3.38378 7.2616 3.00158 6.88867L2.77783 7.02854C3.20662 7.40142 3.34648 8.00741 3.4397 8.83711C3.58885 10.0863 4.59562 10.6643 5.77021 10.683C6.99139 10.7016 7.42951 10.9533 7.88625 11.5687C8.0354 11.7644 8.20323 11.8297 8.33371 11.8576L8.41769 11.6618Z" fill="#010101"/>
<path opacity="0.4" d="M12.7432 5.66748C12.7712 5.80731 12.8457 6.07766 12.9949 6.20815C13.0602 6.27342 13.0695 6.29205 13.0135 6.29205C12.9576 6.29205 12.5474 6.27342 12.5474 6.27342L12.4355 6.07766L12.7432 5.66748Z" fill="#010101"/>
</g>
<defs>
<clipPath id="clip0_664_610">
<rect width="14.4118" height="16.7045" fill="white"/>
</clipPath>
</defs>
</svg>
